<svg width="83" height="70" viewBox="0 0 83 70" fill="none" xmlns="http://www.w3.org/2000/svg">
<ellipse cx="2.82526" cy="3.08329" rx="2.82526" ry="3.08329" fill="#363535"/>
<ellipse cx="18.2952" cy="3.08329" rx="2.82526" ry="3.08329" fill="#363535"/>
<ellipse cx="33.7651" cy="3.08329" rx="2.82526" ry="3.08329" fill="#363535"/>
<ellipse cx="49.2349" cy="3.08329" rx="2.82526" ry="3.08329" fill="#363535"/>
<ellipse cx="64.7048" cy="3.08329" rx="2.82526" ry="3.08329" fill="#363535"/>
<ellipse cx="80.1748" cy="3.08329" rx="2.82526" ry="3.08329" fill="#363535"/>
<ellipse cx="2.82526" cy="3.08329" rx="2.82526" ry="3.08329" fill="#363535"/>
<ellipse cx="80.1748" cy="3.08329" rx="2.82526" ry="3.08329" fill="#363535"/>
<ellipse cx="18.2952" cy="19.0416" rx="2.82526" ry="3.08329" fill="#363535"/>
<ellipse cx="33.7651" cy="19.0416" rx="2.82526" ry="3.08329" fill="#363535"/>
<ellipse cx="49.2349" cy="19.0416" rx="2.82526" ry="3.08329" fill="#363535"/>
<ellipse cx="64.7048" cy="19.0416" rx="2.82526" ry="3.08329" fill="#363535"/>
<ellipse cx="2.82526" cy="19.0416" rx="2.82526" ry="3.08329" fill="#363535"/>
<ellipse cx="80.1748" cy="19.0416" rx="2.82526" ry="3.08329" fill="#363535"/>
<ellipse cx="18.2952" cy="35" rx="2.82526" ry="3.08329" fill="#363535"/>
<ellipse cx="33.7651" cy="35" rx="2.82526" ry="3.08329" fill="#363535"/>
<ellipse cx="49.2349" cy="35" rx="2.82526" ry="3.08329" fill="#363535"/>
<ellipse cx="64.7048" cy="35" rx="2.82526" ry="3.08329" fill="#363535"/>
<ellipse cx="2.82526" cy="35" rx="2.82526" ry="3.08329" fill="#363535"/>
<ellipse cx="80.1748" cy="35" rx="2.82526" ry="3.08329" fill="#363535"/>
<ellipse cx="18.2952" cy="50.9584" rx="2.82526" ry="3.08329" fill="#363535"/>
<ellipse cx="33.7651" cy="50.9584" rx="2.82526" ry="3.08329" fill="#363535"/>
<ellipse cx="49.2349" cy="50.9584" rx="2.82526" ry="3.08329" fill="#363535"/>
<ellipse cx="64.7048" cy="50.9584" rx="2.82526" ry="3.08329" fill="#363535"/>
<ellipse cx="2.82526" cy="50.9584" rx="2.82526" ry="3.08329" fill="#363535"/>
<ellipse cx="80.1748" cy="50.9584" rx="2.82526" ry="3.08329" fill="#363535"/>
<ellipse cx="18.2952" cy="66.9167" rx="2.82526" ry="3.08329" fill="#363535"/>
<ellipse cx="33.7651" cy="66.9167" rx="2.82526" ry="3.08329" fill="#363535"/>
<ellipse cx="49.2349" cy="66.9167" rx="2.82526" ry="3.08329" fill="#363535"/>
<ellipse cx="64.7048" cy="66.9167" rx="2.82526" ry="3.08329" fill="#363535"/>
<ellipse cx="2.82526" cy="66.9167" rx="2.82526" ry="3.08329" fill="#363535"/>
<ellipse cx="80.1748" cy="66.9167" rx="2.82526" ry="3.08329" fill="#363535"/>
</svg>
