<svg width="110" height="110" viewBox="0 0 110 110" fill="none" xmlns="http://www.w3.org/2000/svg">
<path d="M63.8975 38.0742C65.9922 38.0742 67.9185 38.3672 69.6763 38.9531C71.4341 39.5391 73.0161 39.9199 74.4224 40.0957C73.646 42.8203 73.6167 45.7573 74.3345 48.9067C73.5874 49.5366 72.7305 49.9028 71.7637 50.0054C71.6465 49.7271 71.4341 49.1484 71.1265 48.2695C70.8335 47.376 70.5479 46.6436 70.2695 46.0723C70.0059 45.501 69.6323 44.8491 69.1489 44.1167C68.6802 43.3843 68.0503 42.8057 67.2593 42.3809C66.4829 41.9414 65.5894 41.6411 64.5786 41.48C63.0991 41.6118 61.9565 42.0659 61.1509 42.8423C60.3452 43.6187 59.9424 44.6221 59.9424 45.8525C59.9424 47.1123 60.2646 48.1523 60.9092 48.9727C61.5537 49.7783 62.3887 50.3862 63.4141 50.7964C64.4541 51.1919 65.5967 51.5435 66.8418 51.8511C68.0869 52.144 69.3247 52.5103 70.5552 52.9497C71.7856 53.3745 72.9136 53.9385 73.939 54.6416C74.979 55.3301 75.8213 56.3628 76.4658 57.7397C77.1104 59.1167 77.4326 60.7939 77.4326 62.7715C77.4326 65.1738 76.7368 67.2393 75.3452 68.9678C73.9536 70.6963 72.313 71.9341 70.4233 72.6812C68.5337 73.4282 66.6001 73.8018 64.6226 73.8018C60.272 73.8018 55.9653 72.8423 51.7026 70.9233C51.7905 69.0337 51.8345 67.8765 51.8345 67.4517C51.8345 65.0786 51.6074 62.5298 51.1533 59.8052C52.4717 59.1753 53.9438 59.146 55.5698 59.7173C56.1118 63.0425 57.1592 65.5913 58.7119 67.3638C60.2793 69.1362 61.9932 70.125 63.8535 70.3301C65.5967 70.2129 66.937 69.6489 67.8745 68.6382C68.8267 67.6128 69.3027 66.3164 69.3027 64.749C69.3027 63.4307 68.9951 62.3174 68.3799 61.4092C67.7646 60.4863 66.9517 59.7759 65.9409 59.2778C64.9302 58.7651 63.8315 58.3037 62.645 57.8936C61.4731 57.4834 60.2866 57.0513 59.0854 56.5972C57.8843 56.1284 56.7783 55.5718 55.7676 54.9272C54.7715 54.2827 53.9658 53.3818 53.3506 52.2246C52.7354 51.0674 52.4277 49.6611 52.4277 48.0059C52.4277 46.5117 52.6621 45.1714 53.1309 43.9849C53.6143 42.7983 54.2368 41.8462 54.9985 41.1284C55.7749 40.4106 56.6758 39.8101 57.7012 39.3267C58.7412 38.8433 59.7666 38.5137 60.7773 38.3379C61.8027 38.1621 62.8428 38.0742 63.8975 38.0742ZM63.8975 38.9751C62.667 38.9751 61.4731 39.1216 60.3159 39.4146C59.1587 39.6929 58.0308 40.1543 56.9321 40.7988C55.8481 41.4434 54.9766 42.3882 54.3174 43.6333C53.6582 44.8784 53.3286 46.3359 53.3286 48.0059C53.3286 49.4854 53.6362 50.7598 54.2515 51.8291C54.8667 52.8838 55.6724 53.7041 56.6685 54.29C57.6792 54.876 58.7852 55.396 59.9863 55.8501C61.1875 56.2896 62.374 56.7363 63.5459 57.1904C64.7324 57.6445 65.8311 58.1572 66.8418 58.7285C67.8525 59.2998 68.6655 60.0981 69.2808 61.1235C69.896 62.1343 70.2036 63.3428 70.2036 64.749C70.2036 66.6973 69.5811 68.272 68.3359 69.4731C67.0908 70.6743 65.3257 71.2749 63.0405 71.2749C60.8433 71.2749 58.7998 70.3594 56.9102 68.5283C55.0205 66.6973 53.7754 63.958 53.1748 60.3105C52.8818 60.1201 52.5376 60.1201 52.1421 60.3105C52.5376 62.6104 52.7354 64.9907 52.7354 67.4517C52.7354 68.1401 52.7061 69.1143 52.6475 70.374C56.2803 72.0586 59.7446 72.9009 63.0405 72.9009C65.7651 72.9009 68.2847 72.0952 70.5991 70.4839C72.9136 68.8579 74.0708 66.5874 74.0708 63.6724C74.0708 62.0171 73.7485 60.6182 73.104 59.4756C72.4595 58.3184 71.6172 57.4175 70.5771 56.7729C69.5371 56.1284 68.3945 55.5718 67.1494 55.103C65.9043 54.6343 64.6665 54.1948 63.436 53.7847C62.2056 53.3599 61.0703 52.8911 60.0303 52.3784C59.0049 51.8657 58.1699 51.1406 57.5254 50.2031C56.8809 49.251 56.5586 48.1011 56.5586 46.7534C56.5586 44.8638 57.1958 43.355 58.4702 42.2271C59.7446 41.0991 61.5537 40.5352 63.8975 40.5352C67.9697 40.5352 70.7749 43.355 72.313 48.9946C72.7671 49.0679 73.082 48.9653 73.2578 48.687C72.7744 45.1128 71.7124 42.6006 70.0718 41.1504C68.4458 39.7002 66.3877 38.9751 63.8975 38.9751Z" fill="#846442"/>
<path d="M39.1406 35.5703L39.4219 22.2109C40.7344 22.1172 41.7266 22.0703 42.3984 22.0703C44.6172 22.0703 46.3828 22.5703 47.6953 23.5703C49.0078 24.5547 49.6641 26.1172 49.6641 28.2578C49.6641 33.1328 46.1562 35.5703 39.1406 35.5703ZM39.375 53.4062L39.1406 37C40.3906 36.9062 41.6094 36.8594 42.7969 36.8594C46.1562 36.8594 48.8281 37.4766 50.8125 38.7109C52.7969 39.9453 53.7891 41.8906 53.7891 44.5469C53.7891 46.1094 53.5 47.4531 52.9219 48.5781C52.3438 49.6875 51.6172 50.5469 50.7422 51.1562C49.8828 51.7656 48.7656 52.25 47.3906 52.6094C46.0156 52.9531 44.7344 53.1719 43.5469 53.2656C42.375 53.3594 40.9844 53.4062 39.375 53.4062ZM42.9844 52.3984C44.3906 52.3047 45.625 52.1406 46.6875 51.9062C47.7656 51.6719 48.7891 51.2812 49.7578 50.7344C50.7422 50.1875 51.5 49.3984 52.0312 48.3672C52.5625 47.3203 52.8281 46.0469 52.8281 44.5469C52.8281 42.9375 52.2812 41.5859 51.1875 40.4922C50.0938 39.3828 48.8047 38.6328 47.3203 38.2422C45.8359 37.8359 44.3125 37.7109 42.75 37.8672L42.9844 52.3984ZM42.9844 23.0781L42.7969 34.4453C46.7344 33.8516 48.7031 31.7891 48.7031 28.2578C48.7031 25.0234 46.7969 23.2969 42.9844 23.0781ZM29.4375 55.1406C32.4844 55.0469 36.1172 55 40.3359 55C41.7422 55 43.0078 54.9688 44.1328 54.9062C45.2578 54.8438 46.6016 54.7109 48.1641 54.5078C49.7266 54.2891 51.0938 53.9375 52.2656 53.4531C53.4375 52.9531 54.5625 52.3359 55.6406 51.6016C56.7344 50.8516 57.5703 49.875 58.1484 48.6719C58.7266 47.4531 59.0156 46.0391 59.0156 44.4297C59.0156 41.9766 58.0547 39.9688 56.1328 38.4062C54.2109 36.8281 51.8438 35.8125 49.0312 35.3594V35.1719C50.8594 34.5938 52.3281 33.7344 53.4375 32.5938C54.5625 31.4375 55.125 29.9922 55.125 28.2578C55.125 23.1172 51.2188 20.5469 43.4062 20.5469C42.7969 20.5469 41.7734 20.5781 40.3359 20.6406C38.8984 20.7031 37.3047 20.7344 35.5547 20.7344C33.8203 20.7344 31.7969 20.6719 29.4844 20.5469C29.3594 20.8281 29.3594 21.1953 29.4844 21.6484C33.0781 21.9922 34.8906 22.7422 34.9219 23.8984C35.0781 27.5703 35.1562 31.9375 35.1562 37C35.1562 41.9531 35.0625 46.8828 34.875 51.7891C34.8438 52.9453 33.0312 53.6953 29.4375 54.0391C29.3125 54.2891 29.3125 54.6562 29.4375 55.1406ZM28.8281 19.5391C31.0938 19.6328 33.2344 19.6797 35.25 19.6797C37.2656 19.6797 39.2344 19.6641 41.1562 19.6328C43.0781 19.6016 44.3906 19.5859 45.0938 19.5859C46.4062 19.5859 47.5938 19.6328 48.6562 19.7266C49.7344 19.8203 50.9297 20.0469 52.2422 20.4062C53.5547 20.75 54.6562 21.2188 55.5469 21.8125C56.4531 22.4062 57.2109 23.2578 57.8203 24.3672C58.4297 25.4609 58.7344 26.7578 58.7344 28.2578C58.7344 31.0391 57.1953 33.2812 54.1172 34.9844C56.6484 35.7188 58.6953 36.8984 60.2578 38.5234C61.8359 40.1328 62.625 42.1016 62.625 44.4297C62.625 45.9453 62.3672 47.3047 61.8516 48.5078C61.3359 49.6953 60.6797 50.6875 59.8828 51.4844C59.0859 52.2656 58.0703 52.9453 56.8359 53.5234C55.6016 54.0859 54.4141 54.5234 53.2734 54.8359C52.1328 55.1328 50.8203 55.3672 49.3359 55.5391C47.8516 55.7266 46.5781 55.8438 45.5156 55.8906C44.4688 55.9375 43.3047 55.9609 42.0234 55.9609C38.3047 55.9609 33.8906 56.0234 28.7812 56.1484C28.3906 55.0703 28.3906 54.0625 28.7812 53.125C32.1719 52.7812 33.8828 52.3203 33.9141 51.7422C34.1016 46.8359 34.1953 41.9219 34.1953 37C34.1953 31.9688 34.1172 27.6172 33.9609 23.9453C33.9297 23.3672 32.1875 22.9062 28.7344 22.5625C28.4688 21.5625 28.5 20.5547 28.8281 19.5391Z" fill="#D09C65"/>
<circle cx="55" cy="55" r="49.5" stroke="#D09C65"/>
<path d="M10.6876 70.6323C11.1617 71.778 11.8065 72.175 12.6218 71.8232C13.2168 71.5664 13.5333 71.2643 13.5713 70.9169C13.6197 70.5736 13.4435 69.9178 13.0427 68.9495L10.4572 70.0129C10.5465 70.2706 10.6233 70.477 10.6876 70.6323ZM14.1527 69.0586C14.403 69.6214 14.6432 69.9926 14.8733 70.1721C15.1034 70.3516 15.4278 70.351 15.8465 70.1703C16.2725 69.9865 16.4987 69.7277 16.5251 69.394C16.5514 69.0603 16.4499 68.6162 16.2204 68.0618L16.0552 67.6627C15.1236 68.0472 14.4228 68.3409 13.9527 68.5438L14.1527 69.0586ZM9.63993 71.019L8.50649 68.2802L9.07118 67.919C9.38451 68.2368 9.6195 68.5013 9.77616 68.7125C9.7982 68.703 11.7273 67.8314 15.5634 66.0976C15.5438 65.9667 15.5123 65.6187 15.469 65.0537L16.1778 64.8524L17.4489 67.9238C17.8129 68.8034 17.927 69.5601 17.791 70.1937C17.655 70.8274 17.2675 71.2821 16.6285 71.5579C16.32 71.691 15.9506 71.7502 15.5203 71.7355C15.0931 71.7282 14.802 71.6316 14.6472 71.4458C14.6055 71.8471 14.465 72.2083 14.2256 72.5294C13.9863 72.8505 13.6609 73.0998 13.2496 73.2773C12.5738 73.5689 11.9119 73.5278 11.2637 73.1541C10.6156 72.7803 10.0743 72.0686 9.63993 71.019Z" fill="#D09C65"/>
<path d="M23.9351 78.8195L23.8485 78.9037C23.5916 79.1077 23.3409 79.2405 23.0962 79.3021C22.9705 79.2691 22.821 79.1785 22.6477 79.0301L19.2203 84.3113L19.7983 85.3077C19.5415 85.5117 19.2133 85.655 18.8136 85.7375L17.0465 83.4179L17.4978 82.9215C17.8017 83.1092 18.0008 83.2319 18.0951 83.2898L18.8661 82.0646L17.2298 79.9168C16.5269 80.1688 16.158 80.2983 16.1233 80.3055L16.5405 81.0313C16.4089 81.1358 16.2361 81.2322 16.0219 81.3207C15.8139 81.4041 15.6586 81.4509 15.5557 81.4611L13.7886 79.1415L14.24 78.6451C14.5772 78.8369 14.8612 79.025 15.0921 79.2093L21.1436 76.9766C20.8814 76.5005 20.718 76.1145 20.6534 75.8185C20.8351 75.6742 21.0166 75.5759 21.1981 75.5237C21.3437 75.6225 21.6314 75.8946 22.0611 76.3398C22.5019 76.7864 22.892 77.2324 23.2313 77.6779C23.5755 78.1297 23.8101 78.5103 23.9351 78.8195ZM20.413 79.6407L21.4425 78.3787L21.3698 78.2832L19.8403 79.0077L18.324 79.4921L19.5384 81.0862L20.413 79.6407Z" fill="#D09C65"/>
<path d="M30.0314 84.3943C31.1387 85.2509 31.7535 85.9794 31.8759 86.5796C31.9904 87.1233 31.8236 87.6971 31.3755 88.301C30.6795 89.239 29.7243 89.5062 28.5098 89.1026L28.3249 92.2512L29.0768 92.9694C28.8718 93.2456 28.594 93.4656 28.2435 93.6293L26.8673 92.5646L27.145 88.2439L26.8413 88.009L25.3541 89.9529L25.9898 90.566C25.7943 90.8294 25.5142 91.0526 25.1494 91.2355L22.8051 89.4218L23.1129 88.8257C23.607 88.9652 23.9419 89.0777 24.1175 89.163C24.6912 88.363 25.3833 87.3967 26.1938 86.2642C27.0043 85.1316 27.547 84.3734 27.822 83.9894L27.2129 83.1391C27.3289 82.9962 27.5028 82.8223 27.7346 82.6173L30.0314 84.3943ZM30.0161 86.0055C29.8533 85.8088 29.6074 85.5831 29.2784 85.3286L29.0126 85.123C28.3421 85.9998 27.8424 86.6598 27.5135 87.1031L27.9857 87.4533C28.3638 87.7357 28.7152 87.8862 29.04 87.9049C29.3759 87.922 29.7059 87.7122 30.03 87.2753C30.3542 86.8384 30.3496 86.4151 30.0161 86.0055Z" fill="#D09C65"/>
<path d="M36.2073 96.4181C37.3473 96.9058 38.0859 96.7389 38.423 95.9174C38.669 95.3179 38.6841 94.8807 38.4684 94.6057C38.2631 94.3264 37.6787 93.9807 36.7151 93.5684L35.6096 96.1363C35.8536 96.2581 36.0528 96.352 36.2073 96.4181ZM37.5852 92.8705C38.1576 93.098 38.5888 93.1955 38.8788 93.163C39.1689 93.1305 39.4004 92.9033 39.5735 92.4814C39.7497 92.0521 39.7305 91.709 39.5161 91.4519C39.3017 91.1949 38.9186 90.9483 38.367 90.7123L37.9698 90.5424C37.5724 91.4686 37.2766 92.1686 37.0822 92.6423L37.5852 92.8705ZM35.7285 97.4269L33.0034 96.261L33.1546 95.608C33.6009 95.6162 33.9538 95.641 34.2135 95.6825C34.2226 95.6603 34.9928 93.6886 36.524 89.7672C36.4185 89.6873 36.1527 89.4605 35.7268 89.0868L36.0929 88.4474L39.149 89.7549C40.0242 90.1293 40.6347 90.5906 40.9805 91.1388C41.3262 91.6869 41.367 92.2829 41.1027 92.9268C40.9752 93.2377 40.7524 93.5382 40.4344 93.8285C40.1238 94.1219 39.8482 94.2563 39.6076 94.2317C39.8583 94.5478 40.0103 94.9043 40.0636 95.3012C40.1169 95.6981 40.0585 96.1038 39.8884 96.5183C39.609 97.1992 39.1069 97.6326 38.3822 97.8184C37.6575 98.0043 36.7729 97.8738 35.7285 97.4269Z" fill="#D09C65"/>
<path d="M47.9556 93.5173C47.8263 94.4201 47.7073 95.195 47.5985 95.842L48.8091 96.0227L49.0451 95.2208C49.4487 95.281 49.8261 95.4385 50.1776 95.6931L49.8375 98.0689L49.049 97.9876C48.9 97.6742 48.8249 97.4082 48.8239 97.1896L47.4234 96.9806C47.2488 98.0869 47.1213 98.9212 47.0408 99.4835L49.0703 99.7864L49.4794 98.7919C49.9699 98.8652 50.3384 98.9444 50.5848 99.0298C50.6389 99.4989 50.6393 99.9195 50.586 100.292C50.5338 100.656 50.48 100.947 50.4245 101.165L44.5377 100.287L44.5245 99.6174C45.0671 99.4962 45.4159 99.431 45.5707 99.4218C45.6297 98.9533 45.7159 98.2949 45.8293 97.4463C46.0698 95.541 46.2479 94.0995 46.3636 93.1219L45.4227 92.666L45.6214 91.9556L51.4488 92.8254C51.442 93.0428 51.4153 93.3138 51.3688 93.6385C51.3234 93.9553 51.2006 94.3899 51.0003 94.9424C50.7437 94.985 50.3661 94.969 49.8676 94.8946L49.7477 93.7848L47.9556 93.5173Z" fill="#D09C65"/>
<path d="M58.5998 92.635C59.9915 92.4832 60.9349 92.5815 61.4298 92.9298C61.8808 93.2427 62.1455 93.7732 62.2237 94.5211C62.3453 95.6827 61.8237 96.5404 60.659 97.094L62.6479 99.4964L63.685 99.4919C63.7208 99.834 63.6652 100.186 63.518 100.548L61.7883 100.737L59.0767 97.4235L58.695 97.4652L58.914 99.9038L59.7948 99.9042C59.829 100.23 59.7737 100.587 59.6291 100.973L56.6826 101.294L56.5066 100.649C56.9637 100.406 57.2857 100.254 57.4724 100.194C57.3541 99.2169 57.2105 98.0376 57.0418 96.6557C56.8731 95.2739 56.7602 94.3487 56.7031 93.8801L55.6817 93.6898C55.6705 93.5059 55.6809 93.2593 55.7129 92.95L58.5998 92.635ZM59.6758 93.8092C59.4235 93.7805 59.0905 93.7886 58.677 93.8337L58.3429 93.8702C58.4419 94.9699 58.5202 95.7943 58.5776 96.3433L59.1609 96.2676C59.6293 96.2084 59.9891 96.0726 60.2403 95.8601C60.4987 95.6388 60.5996 95.2576 60.543 94.7165C60.4863 94.1755 60.1973 93.8731 59.6758 93.8092Z" fill="#D09C65"/>
<path d="M71.0714 97.0711C71.9382 96.7399 72.2354 96.2025 71.9629 95.4588C71.8473 95.1434 71.5852 94.9395 71.1765 94.8473C70.8768 94.7734 70.4833 94.7226 69.996 94.6947C69.5134 94.6564 69.1469 94.6209 68.8963 94.5882C68.6533 94.5526 68.36 94.4848 68.0167 94.3848C67.3552 94.1837 66.9157 93.7865 66.6982 93.1931C66.4807 92.5997 66.5284 92.0206 66.8411 91.4558C67.1585 90.8806 67.7096 90.4432 68.4942 90.1434C69.2789 89.8435 70.2081 89.7754 71.2818 89.9389C71.48 90.4797 71.6387 91.087 71.7578 91.7608C71.5462 91.9273 71.205 92.1005 70.7342 92.2804L69.9178 91.0638C69.611 91.0868 69.2932 91.1611 68.9644 91.2868C68.6356 91.4124 68.4076 91.5808 68.2806 91.7921C68.1535 92.0033 68.1423 92.2517 68.2469 92.5371C68.3487 92.815 68.5792 93.0138 68.9383 93.1335C69.3021 93.2429 69.7165 93.3158 70.1813 93.3522C70.6435 93.3812 70.963 93.4046 71.14 93.4226C71.317 93.4406 71.5489 93.4805 71.8356 93.5422C72.1223 93.6039 72.3502 93.6795 72.5193 93.7691C72.9579 94.0125 73.2583 94.3559 73.4207 94.7991C73.707 95.5803 73.6694 96.2797 73.3079 96.8973C72.9464 97.515 72.3509 97.9823 71.5214 98.2993C71.0805 98.4677 70.5672 98.5782 69.9816 98.6307C69.4007 98.6729 68.8831 98.6437 68.4288 98.5432C68.2758 98.0793 68.1085 97.4368 67.9269 96.6156C68.2038 96.4413 68.5515 96.2742 68.97 96.1143L69.7009 97.3764C70.1587 97.3471 70.6155 97.2453 71.0714 97.0711Z" fill="#D09C65"/>
<path d="M83.8205 90.0586L82.1604 87.7649L79.6186 89.6152C80.2926 90.6086 80.7991 91.3479 81.138 91.8333L81.8692 91.4346C82.057 91.7035 82.1818 92.043 82.2438 92.453L79.8863 94.1692L79.4211 93.6916C79.678 93.2771 79.8832 92.9842 80.0368 92.813C80.0231 92.7933 78.7826 91.0796 76.3155 87.6717L75.3316 88.0021L74.9902 87.3454L77.5029 85.5162C77.73 85.618 77.9724 85.8323 78.2299 86.1593C77.9367 86.4519 77.7429 86.6424 77.6486 86.7309C78.231 87.593 78.6711 88.2373 78.9688 88.6636L81.4815 86.8344L80.0991 84.9173L79.1152 85.2477L78.7738 84.591L81.2865 82.7618C81.5136 82.8636 81.756 83.0779 82.0135 83.4049C81.7203 83.6975 81.5266 83.888 81.4322 83.9765L84.9216 89.0789L85.6528 88.6802C85.8406 88.9491 85.9655 89.2886 86.0274 89.6986L83.6699 91.4148L83.2047 90.9372C83.4616 90.5227 83.6668 90.2298 83.8205 90.0586Z" fill="#D09C65"/>
<path d="M91.3781 82.347C92.193 81.2984 91.808 80.132 90.223 78.8477C88.638 77.5634 87.4381 77.4455 86.6232 78.4941C86.2697 78.9489 86.0288 79.4022 85.9005 79.8541C86.2713 80.6282 86.8515 81.3351 87.6409 81.9747C88.424 82.6093 89.1264 82.9829 89.7481 83.0954C90.3635 83.2029 90.9068 82.9534 91.3781 82.347ZM85.6162 77.6782C86.4361 76.6233 87.2864 76.1027 88.1671 76.1163C89.0417 76.125 90.0384 76.5826 91.1572 77.4891C91.8596 78.0583 92.3882 78.6359 92.7431 79.222C93.098 79.8081 93.2552 80.4399 93.2149 81.1175C93.1745 81.7952 92.8917 82.4719 92.3664 83.1478C91.5662 84.1774 90.7017 84.6968 89.7728 84.7059C88.8488 84.7087 87.8461 84.2719 86.7645 83.3956C84.4772 81.5422 84.0944 79.6364 85.6162 77.6782Z" fill="#D09C65"/>
<path d="M91.6977 67.6317C92.0862 66.6929 92.5369 66.0641 93.0498 65.7453C93.5626 65.4265 94.2451 65.4509 95.0971 65.8185C95.8096 66.126 96.3128 66.6045 96.6067 67.254C96.8933 67.9004 96.8346 68.7114 96.4308 69.6872C96.2993 70.005 96.1916 70.2548 96.1078 70.4364L98.0378 71.2953L98.4609 70.524C98.7841 70.6634 99.0684 70.8863 99.3139 71.1926L98.1805 73.9313L97.5332 73.7696C97.538 73.3187 97.56 72.9623 97.5991 72.7004C97.5771 72.6909 95.6205 71.8858 91.7293 70.2851C91.651 70.3907 91.4285 70.6563 91.0619 71.0818L90.4266 70.7031L91.6977 67.6317ZM95.2877 69.4684C95.4854 68.9699 95.5086 68.5269 95.3573 68.1393C95.2061 67.7517 94.9211 67.4676 94.5024 67.2869C94.0838 67.1062 93.7358 67.0998 93.4585 67.2677C93.177 67.425 92.9307 67.7587 92.7196 68.2687C92.637 68.4683 92.5627 68.6584 92.4966 68.839C93.6511 69.3545 94.5147 69.7359 95.0877 69.9832L95.2877 69.4684Z" fill="#D09C65"/>
<circle cx="55" cy="55" r="54.5" stroke="#A06E39"/>
</svg>
